<?xml version="1.0" encoding="UTF-8" standalone="no"?>
<!DOCTYPE svg PUBLIC "-//W3C//DTD SVG 1.1//EN"
 "http://www.w3.org/Graphics/SVG/1.1/DTD/svg11.dtd">
<!-- Generated by graphviz version 2.43.0 (0)
 -->
<!-- Title: architecture Pages: 1 -->
<svg width="623pt" height="583pt"
 viewBox="0.00 0.00 623.00 583.00" xmlns="http://www.w3.org/2000/svg" xmlns:xlink="http://www.w3.org/1999/xlink">
<g id="graph0" class="graph" transform="scale(1 1) rotate(0) translate(4 579)">
<title>architecture</title>
<g id="clust1" class="cluster">
<title>cluster_server</title>
<polygon fill="transparent" stroke="#666666" stroke-dasharray="5,2" points="260,-143 260,-464 466,-464 466,-143 260,-143"/>
<text text-anchor="middle" x="363" y="-448.8" font-family="Helvetica,sans-Serif" font-size="14.00">sshmail hub</text>
</g>
<g id="clust2" class="cluster">
<title>cluster_clients</title>
<polygon fill="transparent" stroke="#666666" stroke-dasharray="5,2" points="145,-492 145,-567 531,-567 531,-492 145,-492"/>
<text text-anchor="middle" x="338" y="-551.8" font-family="Helvetica,sans-Serif" font-size="14.00">clients</text>
</g>
<g id="clust3" class="cluster">
<title>cluster_data</title>
<polygon fill="transparent" stroke="#666666" stroke-dasharray="5,2" points="8,-8 8,-124 607,-124 607,-8 8,-8"/>
<text text-anchor="middle" x="307.5" y="-108.8" font-family="Helvetica,sans-Serif" font-size="14.00">data (SQLite)</text>
</g>
<!-- ssh_server -->
<g id="node1" class="node">
<title>ssh_server</title>
<path fill="#4a90d9" stroke="black" d="M406,-433C406,-433 296,-433 296,-433 290,-433 284,-427 284,-421 284,-421 284,-409 284,-409 284,-403 290,-397 296,-397 296,-397 406,-397 406,-397 412,-397 418,-403 418,-409 418,-409 418,-421 418,-421 418,-427 412,-433 406,-433"/>
<text text-anchor="middle" x="351" y="-418.2" font-family="Helvetica,sans-Serif" font-size="11.00" fill="white">SSH Server</text>
<text text-anchor="middle" x="351" y="-406.2" font-family="Helvetica,sans-Serif" font-size="11.00" fill="white">(charmbracelet/wish)</text>
</g>
<!-- auth -->
<g id="node2" class="node">
<title>auth</title>
<path fill="#7b68ee" stroke="black" d="M402,-351C402,-351 300,-351 300,-351 294,-351 288,-345 288,-339 288,-339 288,-327 288,-327 288,-321 294,-315 300,-315 300,-315 402,-315 402,-315 408,-315 414,-321 414,-327 414,-327 414,-339 414,-339 414,-345 408,-351 402,-351"/>
<text text-anchor="middle" x="351" y="-336.2" font-family="Helvetica,sans-Serif" font-size="11.00" fill="white">Auth</text>
<text text-anchor="middle" x="351" y="-324.2" font-family="Helvetica,sans-Serif" font-size="11.00" fill="white">(public key handler)</text>
</g>
<!-- ssh_server&#45;&gt;auth -->
<g id="edge4" class="edge">
<title>ssh_server&#45;&gt;auth</title>
<path fill="none" stroke="black" d="M351,-396.64C351,-386.3 351,-372.94 351,-361.22"/>
<polygon fill="black" stroke="black" points="354.5,-361.05 351,-351.05 347.5,-361.05 354.5,-361.05"/>
<text text-anchor="middle" x="383" y="-371.8" font-family="Helvetica,sans-Serif" font-size="9.00">pubkey check</text>
</g>
<!-- api -->
<g id="node3" class="node">
<title>api</title>
<path fill="#4a90d9" stroke="black" d="M404,-269C404,-269 298,-269 298,-269 292,-269 286,-263 286,-257 286,-257 286,-245 286,-245 286,-239 292,-233 298,-233 298,-233 404,-233 404,-233 410,-233 416,-239 416,-245 416,-245 416,-257 416,-257 416,-263 410,-269 404,-269"/>
<text text-anchor="middle" x="351" y="-254.2" font-family="Helvetica,sans-Serif" font-size="11.00" fill="white">API Handler</text>
<text text-anchor="middle" x="351" y="-242.2" font-family="Helvetica,sans-Serif" font-size="11.00" fill="white">(command dispatch)</text>
</g>
<!-- auth&#45;&gt;api -->
<g id="edge5" class="edge">
<title>auth&#45;&gt;api</title>
<path fill="none" stroke="black" d="M351,-314.64C351,-304.3 351,-290.94 351,-279.22"/>
<polygon fill="black" stroke="black" points="354.5,-279.05 351,-269.05 347.5,-279.05 354.5,-279.05"/>
<text text-anchor="middle" x="383" y="-289.8" font-family="Helvetica,sans-Serif" font-size="9.00">agent context</text>
</g>
<!-- store -->
<g id="node4" class="node">
<title>store</title>
<path fill="#2ecc71" stroke="black" d="M342,-187C342,-187 280,-187 280,-187 274,-187 268,-181 268,-175 268,-175 268,-163 268,-163 268,-157 274,-151 280,-151 280,-151 342,-151 342,-151 348,-151 354,-157 354,-163 354,-163 354,-175 354,-175 354,-181 348,-187 342,-187"/>
<text text-anchor="middle" x="311" y="-172.2" font-family="Helvetica,sans-Serif" font-size="11.00" fill="white">SQLite Store</text>
<text text-anchor="middle" x="311" y="-160.2" font-family="Helvetica,sans-Serif" font-size="11.00" fill="white">(WAL mode)</text>
</g>
<!-- api&#45;&gt;store -->
<g id="edge6" class="edge">
<title>api&#45;&gt;store</title>
<path fill="none" stroke="black" d="M342.32,-232.64C336.99,-221.98 330.06,-208.12 324.07,-196.15"/>
<polygon fill="black" stroke="black" points="327.13,-194.43 319.53,-187.05 320.87,-197.56 327.13,-194.43"/>
<text text-anchor="middle" x="350" y="-207.8" font-family="Helvetica,sans-Serif" font-size="9.00">queries</text>
</g>
<!-- rate_limiter -->
<g id="node5" class="node">
<title>rate_limiter</title>
<path fill="#e67e22" stroke="black" d="M445.5,-187C445.5,-187 384.5,-187 384.5,-187 378.5,-187 372.5,-181 372.5,-175 372.5,-175 372.5,-163 372.5,-163 372.5,-157 378.5,-151 384.5,-151 384.5,-151 445.5,-151 445.5,-151 451.5,-151 457.5,-157 457.5,-163 457.5,-163 457.5,-175 457.5,-175 457.5,-181 451.5,-187 445.5,-187"/>
<text text-anchor="middle" x="415" y="-172.2" font-family="Helvetica,sans-Serif" font-size="11.00" fill="white">Rate Limiter</text>
<text text-anchor="middle" x="415" y="-160.2" font-family="Helvetica,sans-Serif" font-size="11.00" fill="white">(in&#45;memory)</text>
</g>
<!-- api&#45;&gt;rate_limiter -->
<g id="edge7" class="edge">
<title>api&#45;&gt;rate_limiter</title>
<path fill="none" stroke="black" d="M364.89,-232.64C373.67,-221.66 385.16,-207.29 394.93,-195.09"/>
<polygon fill="black" stroke="black" points="397.85,-197.05 401.36,-187.05 392.38,-192.67 397.85,-197.05"/>
<text text-anchor="middle" x="412" y="-207.8" font-family="Helvetica,sans-Serif" font-size="9.00">anon sends</text>
</g>
<!-- agents_table -->
<g id="node9" class="node">
<title>agents_table</title>
<path fill="#f39c12" stroke="black" d="M153.5,-86C153.5,-89.86 122.8,-93 85,-93 47.2,-93 16.5,-89.86 16.5,-86 16.5,-86 16.5,-23 16.5,-23 16.5,-19.14 47.2,-16 85,-16 122.8,-16 153.5,-19.14 153.5,-23 153.5,-23 153.5,-86 153.5,-86"/>
<path fill="none" stroke="black" d="M153.5,-86C153.5,-82.14 122.8,-79 85,-79 47.2,-79 16.5,-82.14 16.5,-86"/>
<text text-anchor="middle" x="85" y="-69.7" font-family="Helvetica,sans-Serif" font-size="11.00" fill="white">agents</text>
<text text-anchor="middle" x="85" y="-57.7" font-family="Helvetica,sans-Serif" font-size="11.00" fill="white">(id, name, fingerprint,</text>
<text text-anchor="middle" x="85" y="-45.7" font-family="Helvetica,sans-Serif" font-size="11.00" fill="white">pubkey, bio, guest,</text>
<text text-anchor="middle" x="85" y="-33.7" font-family="Helvetica,sans-Serif" font-size="11.00" fill="white">accept_anon)</text>
</g>
<!-- store&#45;&gt;agents_table -->
<g id="edge8" class="edge">
<title>store&#45;&gt;agents_table</title>
<path fill="none" stroke="black" d="M267.94,-160.34C237.32,-153.69 195.96,-142.22 163,-124 151.18,-117.47 139.6,-108.9 129.14,-100.04"/>
<polygon fill="black" stroke="black" points="131.19,-97.18 121.36,-93.23 126.58,-102.45 131.19,-97.18"/>
</g>
<!-- messages_table -->
<g id="node10" class="node">
<title>messages_table</title>
<path fill="#f39c12" stroke="black" d="M306,-79.46C306,-82.52 275.97,-85 239,-85 202.03,-85 172,-82.52 172,-79.46 172,-79.46 172,-29.54 172,-29.54 172,-26.48 202.03,-24 239,-24 275.97,-24 306,-26.48 306,-29.54 306,-29.54 306,-79.46 306,-79.46"/>
<path fill="none" stroke="black" d="M306,-79.46C306,-76.4 275.97,-73.91 239,-73.91 202.03,-73.91 172,-76.4 172,-79.46"/>
<text text-anchor="middle" x="239" y="-63.7" font-family="Helvetica,sans-Serif" font-size="11.00" fill="white">messages</text>
<text text-anchor="middle" x="239" y="-51.7" font-family="Helvetica,sans-Serif" font-size="11.00" fill="white">(from_id, to_id, body,</text>
<text text-anchor="middle" x="239" y="-39.7" font-family="Helvetica,sans-Serif" font-size="11.00" fill="white">file, timestamps)</text>
</g>
<!-- store&#45;&gt;messages_table -->
<g id="edge9" class="edge">
<title>store&#45;&gt;messages_table</title>
<path fill="none" stroke="black" d="M300.06,-150.91C290.38,-135.78 275.88,-113.12 263.44,-93.69"/>
<polygon fill="black" stroke="black" points="266.24,-91.56 257.9,-85.03 260.34,-95.34 266.24,-91.56"/>
</g>
<!-- invites_table -->
<g id="node11" class="node">
<title>invites_table</title>
<path fill="#f39c12" stroke="black" d="M443.5,-79.46C443.5,-82.52 416.83,-85 384,-85 351.17,-85 324.5,-82.52 324.5,-79.46 324.5,-79.46 324.5,-29.54 324.5,-29.54 324.5,-26.48 351.17,-24 384,-24 416.83,-24 443.5,-26.48 443.5,-29.54 443.5,-29.54 443.5,-79.46 443.5,-79.46"/>
<path fill="none" stroke="black" d="M443.5,-79.46C443.5,-76.4 416.83,-73.91 384,-73.91 351.17,-73.91 324.5,-76.4 324.5,-79.46"/>
<text text-anchor="middle" x="384" y="-63.7" font-family="Helvetica,sans-Serif" font-size="11.00" fill="white">invites</text>
<text text-anchor="middle" x="384" y="-51.7" font-family="Helvetica,sans-Serif" font-size="11.00" fill="white">(code, created_by,</text>
<text text-anchor="middle" x="384" y="-39.7" font-family="Helvetica,sans-Serif" font-size="11.00" fill="white">redeemed_by)</text>
</g>
<!-- store&#45;&gt;invites_table -->
<g id="edge10" class="edge">
<title>store&#45;&gt;invites_table</title>
<path fill="none" stroke="black" d="M322.09,-150.91C331.95,-135.71 346.74,-112.92 359.39,-93.43"/>
<polygon fill="black" stroke="black" points="362.33,-95.32 364.84,-85.03 356.46,-91.51 362.33,-95.32"/>
</g>
<!-- blocks_table -->
<g id="node12" class="node">
<title>blocks_table</title>
<path fill="#f39c12" stroke="black" d="M598.5,-72.5C598.5,-74.71 567.8,-76.5 530,-76.5 492.2,-76.5 461.5,-74.71 461.5,-72.5 461.5,-72.5 461.5,-36.5 461.5,-36.5 461.5,-34.29 492.2,-32.5 530,-32.5 567.8,-32.5 598.5,-34.29 598.5,-36.5 598.5,-36.5 598.5,-72.5 598.5,-72.5"/>
<path fill="none" stroke="black" d="M598.5,-72.5C598.5,-70.29 567.8,-68.5 530,-68.5 492.2,-68.5 461.5,-70.29 461.5,-72.5"/>
<text text-anchor="middle" x="530" y="-57.7" font-family="Helvetica,sans-Serif" font-size="11.00" fill="white">blocks</text>
<text text-anchor="middle" x="530" y="-45.7" font-family="Helvetica,sans-Serif" font-size="11.00" fill="white">(agent_id, fingerprint)</text>
</g>
<!-- store&#45;&gt;blocks_table -->
<g id="edge11" class="edge">
<title>store&#45;&gt;blocks_table</title>
<path fill="none" stroke="black" d="M344.16,-150.93C350.63,-148.01 357.45,-145.21 364,-143 402.32,-130.06 416.91,-142.27 453,-124 472.39,-114.18 490.72,-98.25 504.63,-84.22"/>
<polygon fill="black" stroke="black" points="507.48,-86.31 511.88,-76.68 502.43,-81.47 507.48,-86.31"/>
</g>
<!-- registered -->
<g id="node6" class="node">
<title>registered</title>
<path fill="#9b59b6" stroke="black" d="M259,-536C259,-536 165,-536 165,-536 159,-536 153,-530 153,-524 153,-524 153,-512 153,-512 153,-506 159,-500 165,-500 165,-500 259,-500 259,-500 265,-500 271,-506 271,-512 271,-512 271,-524 271,-524 271,-530 265,-536 259,-536"/>
<text text-anchor="middle" x="212" y="-521.2" font-family="Helvetica,sans-Serif" font-size="11.00" fill="white">Registered Agent</text>
<text text-anchor="middle" x="212" y="-509.2" font-family="Helvetica,sans-Serif" font-size="11.00" fill="white">(SSH key + invite)</text>
</g>
<!-- registered&#45;&gt;ssh_server -->
<g id="edge1" class="edge">
<title>registered&#45;&gt;ssh_server</title>
<path fill="none" stroke="black" d="M235.58,-499.87C258.54,-483.18 293.62,-457.7 319.07,-439.2"/>
<polygon fill="black" stroke="black" points="321.27,-441.93 327.3,-433.22 317.16,-436.26 321.27,-441.93"/>
<text text-anchor="middle" x="282.5" y="-474.8" font-family="Helvetica,sans-Serif" font-size="9.00">SSH</text>
</g>
<!-- anonymous -->
<g id="node7" class="node">
<title>anonymous</title>
<path fill="#95a5a6" stroke="black" d="M400.5,-536C400.5,-536 301.5,-536 301.5,-536 295.5,-536 289.5,-530 289.5,-524 289.5,-524 289.5,-512 289.5,-512 289.5,-506 295.5,-500 301.5,-500 301.5,-500 400.5,-500 400.5,-500 406.5,-500 412.5,-506 412.5,-512 412.5,-512 412.5,-524 412.5,-524 412.5,-530 406.5,-536 400.5,-536"/>
<text text-anchor="middle" x="351" y="-521.2" font-family="Helvetica,sans-Serif" font-size="11.00" fill="white">Anonymous Sender</text>
<text text-anchor="middle" x="351" y="-509.2" font-family="Helvetica,sans-Serif" font-size="11.00" fill="white">(SSH key only)</text>
</g>
<!-- anonymous&#45;&gt;ssh_server -->
<g id="edge2" class="edge">
<title>anonymous&#45;&gt;ssh_server</title>
<path fill="none" stroke="black" d="M351,-499.87C351,-484.41 351,-461.42 351,-443.41"/>
<polygon fill="black" stroke="black" points="354.5,-443.22 351,-433.22 347.5,-443.22 354.5,-443.22"/>
<text text-anchor="middle" x="360.5" y="-474.8" font-family="Helvetica,sans-Serif" font-size="9.00">SSH</text>
</g>
<!-- web_ui -->
<g id="node8" class="node">
<title>web_ui</title>
<path fill="#e74c3c" stroke="black" d="M511,-536C511,-536 443,-536 443,-536 437,-536 431,-530 431,-524 431,-524 431,-512 431,-512 431,-506 437,-500 443,-500 443,-500 511,-500 511,-500 517,-500 523,-506 523,-512 523,-512 523,-524 523,-524 523,-530 517,-536 511,-536"/>
<text text-anchor="middle" x="477" y="-521.2" font-family="Helvetica,sans-Serif" font-size="11.00" fill="white">Web UI</text>
<text text-anchor="middle" x="477" y="-509.2" font-family="Helvetica,sans-Serif" font-size="11.00" fill="white">(sshmail.dev)</text>
</g>
<!-- web_ui&#45;&gt;ssh_server -->
<g id="edge3" class="edge">
<title>web_ui&#45;&gt;ssh_server</title>
<path fill="none" stroke="black" d="M455.63,-499.87C434.99,-483.33 403.57,-458.14 380.55,-439.68"/>
<polygon fill="black" stroke="black" points="382.47,-436.74 372.48,-433.22 378.09,-442.2 382.47,-436.74"/>
<text text-anchor="middle" x="477.5" y="-474.8" font-family="Helvetica,sans-Serif" font-size="9.00">SSH (via API routes)</text>
</g>
</g>
</svg>
