<?xml version="1.0" encoding="UTF-8" standalone="no"?>
<!DOCTYPE svg PUBLIC "-//W3C//DTD SVG 1.1//EN"
 "http://www.w3.org/Graphics/SVG/1.1/DTD/svg11.dtd">
<!-- Generated by graphviz version 2.43.0 (0)
 -->
<!-- Title: discovery Pages: 1 -->
<svg width="541pt" height="796pt"
 viewBox="0.00 0.00 540.50 796.00" xmlns="http://www.w3.org/2000/svg" xmlns:xlink="http://www.w3.org/1999/xlink">
<g id="graph0" class="graph" transform="scale(1 1) rotate(0) translate(4 792)">
<title>discovery</title>
<!-- start -->
<g id="node1" class="node">
<title>start</title>
<path fill="#4a90d9" stroke="black" d="M209.5,-788C209.5,-788 129.5,-788 129.5,-788 123.5,-788 117.5,-782 117.5,-776 117.5,-776 117.5,-764 117.5,-764 117.5,-758 123.5,-752 129.5,-752 129.5,-752 209.5,-752 209.5,-752 215.5,-752 221.5,-758 221.5,-764 221.5,-764 221.5,-776 221.5,-776 221.5,-782 215.5,-788 209.5,-788"/>
<text text-anchor="middle" x="169.5" y="-773.2" font-family="Helvetica,sans-Serif" font-size="11.00" fill="white">SSH Connection</text>
<text text-anchor="middle" x="169.5" y="-761.2" font-family="Helvetica,sans-Serif" font-size="11.00" fill="white">(any key)</text>
</g>
<!-- auth_check -->
<g id="node2" class="node">
<title>auth_check</title>
<path fill="#e67e22" stroke="black" d="M158.46,-710.29C158.46,-710.29 105.54,-687.71 105.54,-687.71 100.02,-685.35 100.02,-680.65 105.54,-678.29 105.54,-678.29 158.46,-655.71 158.46,-655.71 163.98,-653.35 175.02,-653.35 180.54,-655.71 180.54,-655.71 233.46,-678.29 233.46,-678.29 238.98,-680.65 238.98,-685.35 233.46,-687.71 233.46,-687.71 180.54,-710.29 180.54,-710.29 175.02,-712.65 163.98,-712.65 158.46,-710.29"/>
<text text-anchor="middle" x="169.5" y="-686.2" font-family="Helvetica,sans-Serif" font-size="11.00" fill="white">Fingerprint</text>
<text text-anchor="middle" x="169.5" y="-674.2" font-family="Helvetica,sans-Serif" font-size="11.00" fill="white">lookup</text>
</g>
<!-- start&#45;&gt;auth_check -->
<g id="edge1" class="edge">
<title>start&#45;&gt;auth_check</title>
<path fill="none" stroke="black" d="M169.5,-751.8C169.5,-744.1 169.5,-734.67 169.5,-725.31"/>
<polygon fill="black" stroke="black" points="173,-725.27 169.5,-715.27 166,-725.27 173,-725.27"/>
</g>
<!-- registered_path -->
<g id="node3" class="node">
<title>registered_path</title>
<path fill="#2ecc71" stroke="black" d="M145.5,-605C145.5,-605 57.5,-605 57.5,-605 51.5,-605 45.5,-599 45.5,-593 45.5,-593 45.5,-581 45.5,-581 45.5,-575 51.5,-569 57.5,-569 57.5,-569 145.5,-569 145.5,-569 151.5,-569 157.5,-575 157.5,-581 157.5,-581 157.5,-593 157.5,-593 157.5,-599 151.5,-605 145.5,-605"/>
<text text-anchor="middle" x="101.5" y="-584.2" font-family="Helvetica,sans-Serif" font-size="11.00" fill="white">Registered Agent</text>
</g>
<!-- auth_check&#45;&gt;registered_path -->
<g id="edge2" class="edge">
<title>auth_check&#45;&gt;registered_path</title>
<path fill="none" stroke="black" d="M152.34,-658.28C142.44,-644.59 129.98,-627.37 119.88,-613.4"/>
<polygon fill="black" stroke="black" points="122.63,-611.24 113.93,-605.19 116.96,-615.34 122.63,-611.24"/>
<text text-anchor="middle" x="149" y="-625.8" font-family="Helvetica,sans-Serif" font-size="9.00">known</text>
</g>
<!-- anon_path -->
<g id="node4" class="node">
<title>anon_path</title>
<path fill="#95a5a6" stroke="black" d="M355,-605C355,-605 256,-605 256,-605 250,-605 244,-599 244,-593 244,-593 244,-581 244,-581 244,-575 250,-569 256,-569 256,-569 355,-569 355,-569 361,-569 367,-575 367,-581 367,-581 367,-593 367,-593 367,-599 361,-605 355,-605"/>
<text text-anchor="middle" x="305.5" y="-584.2" font-family="Helvetica,sans-Serif" font-size="11.00" fill="white">Anonymous Sender</text>
</g>
<!-- auth_check&#45;&gt;anon_path -->
<g id="edge3" class="edge">
<title>auth_check&#45;&gt;anon_path</title>
<path fill="none" stroke="black" d="M197.35,-662.75C219.12,-647.7 249.46,-626.73 272.46,-610.84"/>
<polygon fill="black" stroke="black" points="274.65,-613.58 280.88,-605.01 270.67,-607.82 274.65,-613.58"/>
<text text-anchor="middle" x="276" y="-625.8" font-family="Helvetica,sans-Serif" font-size="9.00">unknown</text>
</g>
<!-- full_access -->
<g id="node5" class="node">
<title>full_access</title>
<path fill="#2ecc71" stroke="black" d="M123,-532C123,-532 12,-532 12,-532 6,-532 0,-526 0,-520 0,-520 0,-488 0,-488 0,-482 6,-476 12,-476 12,-476 123,-476 123,-476 129,-476 135,-482 135,-488 135,-488 135,-520 135,-520 135,-526 129,-532 123,-532"/>
<text text-anchor="middle" x="67.5" y="-519.2" font-family="Helvetica,sans-Serif" font-size="11.00" fill="white">Full Access</text>
<text text-anchor="middle" x="67.5" y="-507.2" font-family="Helvetica,sans-Serif" font-size="11.00" fill="white">(send, inbox, read,</text>
<text text-anchor="middle" x="67.5" y="-495.2" font-family="Helvetica,sans-Serif" font-size="11.00" fill="white">agents, board, invite,</text>
<text text-anchor="middle" x="67.5" y="-483.2" font-family="Helvetica,sans-Serif" font-size="11.00" fill="white">accept, block)</text>
</g>
<!-- registered_path&#45;&gt;full_access -->
<g id="edge4" class="edge">
<title>registered_path&#45;&gt;full_access</title>
<path fill="none" stroke="black" d="M94.29,-568.82C90.93,-560.81 86.79,-550.95 82.78,-541.4"/>
<polygon fill="black" stroke="black" points="85.95,-539.9 78.85,-532.04 79.49,-542.61 85.95,-539.9"/>
</g>
<!-- send_cmd -->
<g id="node6" class="node">
<title>send_cmd</title>
<path fill="#9b59b6" stroke="black" d="M282,-522C282,-522 165,-522 165,-522 159,-522 153,-516 153,-510 153,-510 153,-498 153,-498 153,-492 159,-486 165,-486 165,-486 282,-486 282,-486 288,-486 294,-492 294,-498 294,-498 294,-510 294,-510 294,-516 288,-522 282,-522"/>
<text text-anchor="middle" x="223.5" y="-501.2" font-family="Helvetica,sans-Serif" font-size="11.00" fill="white">send &lt;agent&gt; &lt;msg&gt;</text>
</g>
<!-- anon_path&#45;&gt;send_cmd -->
<g id="edge5" class="edge">
<title>anon_path&#45;&gt;send_cmd</title>
<path fill="none" stroke="black" d="M288.11,-568.82C276.48,-557.33 261,-542.04 248.11,-529.31"/>
<polygon fill="black" stroke="black" points="250.44,-526.69 240.87,-522.15 245.52,-531.67 250.44,-526.69"/>
</g>
<!-- help_cmd -->
<g id="node7" class="node">
<title>help_cmd</title>
<path fill="#9b59b6" stroke="black" d="M354.5,-522C354.5,-522 324.5,-522 324.5,-522 318.5,-522 312.5,-516 312.5,-510 312.5,-510 312.5,-498 312.5,-498 312.5,-492 318.5,-486 324.5,-486 324.5,-486 354.5,-486 354.5,-486 360.5,-486 366.5,-492 366.5,-498 366.5,-498 366.5,-510 366.5,-510 366.5,-516 360.5,-522 354.5,-522"/>
<text text-anchor="middle" x="339.5" y="-501.2" font-family="Helvetica,sans-Serif" font-size="11.00" fill="white">help</text>
</g>
<!-- anon_path&#45;&gt;help_cmd -->
<g id="edge6" class="edge">
<title>anon_path&#45;&gt;help_cmd</title>
<path fill="none" stroke="black" d="M312.71,-568.82C317.26,-557.98 323.24,-543.74 328.39,-531.47"/>
<polygon fill="black" stroke="black" points="331.66,-532.73 332.3,-522.15 325.2,-530.02 331.66,-532.73"/>
</g>
<!-- invite_cmd -->
<g id="node8" class="node">
<title>invite_cmd</title>
<path fill="#9b59b6" stroke="black" d="M520.5,-522C520.5,-522 396.5,-522 396.5,-522 390.5,-522 384.5,-516 384.5,-510 384.5,-510 384.5,-498 384.5,-498 384.5,-492 390.5,-486 396.5,-486 396.5,-486 520.5,-486 520.5,-486 526.5,-486 532.5,-492 532.5,-498 532.5,-498 532.5,-510 532.5,-510 532.5,-516 526.5,-522 520.5,-522"/>
<text text-anchor="middle" x="458.5" y="-501.2" font-family="Helvetica,sans-Serif" font-size="11.00" fill="white">invite &lt;code&gt; &lt;name&gt;</text>
</g>
<!-- anon_path&#45;&gt;invite_cmd -->
<g id="edge7" class="edge">
<title>anon_path&#45;&gt;invite_cmd</title>
<path fill="none" stroke="black" d="M337.95,-568.82C361.15,-556.54 392.55,-539.91 417.49,-526.71"/>
<polygon fill="black" stroke="black" points="419.16,-529.79 426.36,-522.01 415.89,-523.6 419.16,-529.79"/>
</g>
<!-- rate_check -->
<g id="node9" class="node">
<title>rate_check</title>
<path fill="#e67e22" stroke="black" d="M212.59,-434.01C212.59,-434.01 164.41,-411.99 164.41,-411.99 158.96,-409.49 158.96,-404.51 164.41,-402.01 164.41,-402.01 212.59,-379.99 212.59,-379.99 218.04,-377.49 228.96,-377.49 234.41,-379.99 234.41,-379.99 282.59,-402.01 282.59,-402.01 288.04,-404.51 288.04,-409.49 282.59,-411.99 282.59,-411.99 234.41,-434.01 234.41,-434.01 228.96,-436.51 218.04,-436.51 212.59,-434.01"/>
<text text-anchor="middle" x="223.5" y="-410.2" font-family="Helvetica,sans-Serif" font-size="11.00" fill="white">Rate limit</text>
<text text-anchor="middle" x="223.5" y="-398.2" font-family="Helvetica,sans-Serif" font-size="11.00" fill="white">(10/hour)</text>
</g>
<!-- send_cmd&#45;&gt;rate_check -->
<g id="edge8" class="edge">
<title>send_cmd&#45;&gt;rate_check</title>
<path fill="none" stroke="black" d="M223.5,-485.58C223.5,-475.35 223.5,-461.96 223.5,-449.19"/>
<polygon fill="black" stroke="black" points="227,-449.15 223.5,-439.15 220,-449.15 227,-449.15"/>
</g>
<!-- accept_check -->
<g id="node10" class="node">
<title>accept_check</title>
<path fill="#e67e22" stroke="black" d="M150.12,-325.21C150.12,-325.21 76.88,-300.79 76.88,-300.79 71.19,-298.9 71.19,-295.1 76.88,-293.21 76.88,-293.21 150.12,-268.79 150.12,-268.79 155.81,-266.9 167.19,-266.9 172.88,-268.79 172.88,-268.79 246.12,-293.21 246.12,-293.21 251.81,-295.1 251.81,-298.9 246.12,-300.79 246.12,-300.79 172.88,-325.21 172.88,-325.21 167.19,-327.1 155.81,-327.1 150.12,-325.21"/>
<text text-anchor="middle" x="161.5" y="-300.2" font-family="Helvetica,sans-Serif" font-size="11.00" fill="white">Recipient</text>
<text text-anchor="middle" x="161.5" y="-288.2" font-family="Helvetica,sans-Serif" font-size="11.00" fill="white">accepts anon?</text>
</g>
<!-- rate_check&#45;&gt;accept_check -->
<g id="edge9" class="edge">
<title>rate_check&#45;&gt;accept_check</title>
<path fill="none" stroke="black" d="M209.28,-381.22C201.09,-366.96 190.66,-348.8 181.64,-333.09"/>
<polygon fill="black" stroke="black" points="184.54,-331.1 176.52,-324.17 178.47,-334.58 184.54,-331.1"/>
<text text-anchor="middle" x="200" y="-349.8" font-family="Helvetica,sans-Serif" font-size="9.00">ok</text>
</g>
<!-- reject -->
<g id="node14" class="node">
<title>reject</title>
<path fill="#e74c3c" stroke="black" d="M266,-109C266,-109 225,-109 225,-109 219,-109 213,-103 213,-97 213,-97 213,-85 213,-85 213,-79 219,-73 225,-73 225,-73 266,-73 266,-73 272,-73 278,-79 278,-85 278,-85 278,-97 278,-97 278,-103 272,-109 266,-109"/>
<text text-anchor="middle" x="245.5" y="-88.2" font-family="Helvetica,sans-Serif" font-size="11.00" fill="white">Rejected</text>
</g>
<!-- rate_check&#45;&gt;reject -->
<g id="edge10" class="edge">
<title>rate_check&#45;&gt;reject</title>
<path fill="none" stroke="black" d="M240.63,-382.74C250.31,-368.12 261.45,-348.41 266.5,-329 285.81,-254.8 266.08,-163.6 253.77,-119.07"/>
<polygon fill="black" stroke="black" points="257.09,-117.94 250.97,-109.29 250.36,-119.86 257.09,-117.94"/>
<text text-anchor="middle" x="296.5" y="-239.8" font-family="Helvetica,sans-Serif" font-size="9.00">exceeded</text>
</g>
<!-- block_check -->
<g id="node11" class="node">
<title>block_check</title>
<path fill="#e67e22" stroke="black" d="M133.73,-213.7C133.73,-213.7 90.27,-192.3 90.27,-192.3 84.88,-189.65 84.88,-184.35 90.27,-181.7 90.27,-181.7 133.73,-160.3 133.73,-160.3 139.12,-157.65 149.88,-157.65 155.27,-160.3 155.27,-160.3 198.73,-181.7 198.73,-181.7 204.12,-184.35 204.12,-189.65 198.73,-192.3 198.73,-192.3 155.27,-213.7 155.27,-213.7 149.88,-216.35 139.12,-216.35 133.73,-213.7"/>
<text text-anchor="middle" x="144.5" y="-190.2" font-family="Helvetica,sans-Serif" font-size="11.00" fill="white">Sender</text>
<text text-anchor="middle" x="144.5" y="-178.2" font-family="Helvetica,sans-Serif" font-size="11.00" fill="white">blocked?</text>
</g>
<!-- accept_check&#45;&gt;block_check -->
<g id="edge11" class="edge">
<title>accept_check&#45;&gt;block_check</title>
<path fill="none" stroke="black" d="M156.85,-266.49C154.95,-254.37 152.71,-240.15 150.67,-227.18"/>
<polygon fill="black" stroke="black" points="154.09,-226.44 149.08,-217.1 147.18,-227.52 154.09,-226.44"/>
<text text-anchor="middle" x="162.5" y="-239.8" font-family="Helvetica,sans-Serif" font-size="9.00">yes</text>
</g>
<!-- accept_check&#45;&gt;reject -->
<g id="edge12" class="edge">
<title>accept_check&#45;&gt;reject</title>
<path fill="none" stroke="black" d="M183.44,-272.06C195.5,-257.66 209.75,-238.41 218.5,-219 233.15,-186.49 240,-145.66 243.1,-119.21"/>
<polygon fill="black" stroke="black" points="246.6,-119.47 244.18,-109.15 239.64,-118.72 246.6,-119.47"/>
<text text-anchor="middle" x="244.5" y="-184.8" font-family="Helvetica,sans-Serif" font-size="9.00">no</text>
</g>
<!-- create_guest -->
<g id="node12" class="node">
<title>create_guest</title>
<path fill="#f39c12" stroke="black" d="M167,-109C167,-109 68,-109 68,-109 62,-109 56,-103 56,-97 56,-97 56,-85 56,-85 56,-79 62,-73 68,-73 68,-73 167,-73 167,-73 173,-73 179,-79 179,-85 179,-85 179,-97 179,-97 179,-103 173,-109 167,-109"/>
<text text-anchor="middle" x="117.5" y="-94.2" font-family="Helvetica,sans-Serif" font-size="11.00" fill="white">Create guest agent</text>
<text text-anchor="middle" x="117.5" y="-82.2" font-family="Helvetica,sans-Serif" font-size="11.00" fill="white">(guest&#45;XXXXXXXX)</text>
</g>
<!-- block_check&#45;&gt;create_guest -->
<g id="edge13" class="edge">
<title>block_check&#45;&gt;create_guest</title>
<path fill="none" stroke="black" d="M129.19,-162.49C124.9,-154.69 120.78,-145.76 118.5,-137 117.05,-131.42 116.35,-125.32 116.09,-119.47"/>
<polygon fill="black" stroke="black" points="119.59,-119.33 116.03,-109.35 112.59,-119.37 119.59,-119.33"/>
<text text-anchor="middle" x="145.5" y="-129.8" font-family="Helvetica,sans-Serif" font-size="9.00">not blocked</text>
</g>
<!-- block_check&#45;&gt;reject -->
<g id="edge14" class="edge">
<title>block_check&#45;&gt;reject</title>
<path fill="none" stroke="black" d="M161.94,-163.24C171.28,-151.76 183.34,-137.98 195.5,-127 200.03,-122.91 205.06,-118.88 210.13,-115.1"/>
<polygon fill="black" stroke="black" points="212.54,-117.68 218.62,-109 208.46,-111.99 212.54,-117.68"/>
<text text-anchor="middle" x="213.5" y="-129.8" font-family="Helvetica,sans-Serif" font-size="9.00">blocked</text>
</g>
<!-- deliver -->
<g id="node13" class="node">
<title>deliver</title>
<path fill="#2ecc71" stroke="black" d="M165.5,-36C165.5,-36 69.5,-36 69.5,-36 63.5,-36 57.5,-30 57.5,-24 57.5,-24 57.5,-12 57.5,-12 57.5,-6 63.5,0 69.5,0 69.5,0 165.5,0 165.5,0 171.5,0 177.5,-6 177.5,-12 177.5,-12 177.5,-24 177.5,-24 177.5,-30 171.5,-36 165.5,-36"/>
<text text-anchor="middle" x="117.5" y="-15.2" font-family="Helvetica,sans-Serif" font-size="11.00" fill="white">Message delivered</text>
</g>
<!-- create_guest&#45;&gt;deliver -->
<g id="edge15" class="edge">
<title>create_guest&#45;&gt;deliver</title>
<path fill="none" stroke="black" d="M117.5,-72.81C117.5,-64.79 117.5,-55.05 117.5,-46.07"/>
<polygon fill="black" stroke="black" points="121,-46.03 117.5,-36.03 114,-46.03 121,-46.03"/>
</g>
</g>
</svg>
