<?xml version="1.0" encoding="UTF-8" standalone="no"?>
<!DOCTYPE svg PUBLIC "-//W3C//DTD SVG 1.1//EN"
 "http://www.w3.org/Graphics/SVG/1.1/DTD/svg11.dtd">
<!-- Generated by graphviz version 2.43.0 (0)
 -->
<!-- Title: e2e_room Pages: 1 -->
<svg width="444pt" height="404pt"
 viewBox="0.00 0.00 444.00 404.00" xmlns="http://www.w3.org/2000/svg" xmlns:xlink="http://www.w3.org/1999/xlink">
<g id="graph0" class="graph" transform="scale(1 1) rotate(0) translate(4 400)">
<title>e2e_room</title>
<!-- message -->
<g id="node1" class="node">
<title>message</title>
<path fill="#4a90d9" stroke="black" d="M269.5,-396C269.5,-396 146.5,-396 146.5,-396 140.5,-396 134.5,-390 134.5,-384 134.5,-384 134.5,-372 134.5,-372 134.5,-366 140.5,-360 146.5,-360 146.5,-360 269.5,-360 269.5,-360 275.5,-360 281.5,-366 281.5,-372 281.5,-372 281.5,-384 281.5,-384 281.5,-390 275.5,-396 269.5,-396"/>
<text text-anchor="middle" x="208" y="-375.2" font-family="Helvetica,sans-Serif" font-size="11.00" fill="white">Message: hello anarchy</text>
</g>
<!-- gen_key -->
<g id="node2" class="node">
<title>gen_key</title>
<path fill="#4a90d9" stroke="black" d="M270,-324C270,-324 146,-324 146,-324 140,-324 134,-318 134,-312 134,-312 134,-300 134,-300 134,-294 140,-288 146,-288 146,-288 270,-288 270,-288 276,-288 282,-294 282,-300 282,-300 282,-312 282,-312 282,-318 276,-324 270,-324"/>
<text text-anchor="middle" x="208" y="-303.2" font-family="Helvetica,sans-Serif" font-size="11.00" fill="white">Generate random key K</text>
</g>
<!-- message&#45;&gt;gen_key -->
<g id="edge1" class="edge">
<title>message&#45;&gt;gen_key</title>
<path fill="none" stroke="black" d="M208,-359.7C208,-351.98 208,-342.71 208,-334.11"/>
<polygon fill="black" stroke="black" points="211.5,-334.1 208,-324.1 204.5,-334.1 211.5,-334.1"/>
</g>
<!-- encrypt -->
<g id="node3" class="node">
<title>encrypt</title>
<path fill="#4a90d9" stroke="black" d="M244.5,-252C244.5,-252 171.5,-252 171.5,-252 165.5,-252 159.5,-246 159.5,-240 159.5,-240 159.5,-228 159.5,-228 159.5,-222 165.5,-216 171.5,-216 171.5,-216 244.5,-216 244.5,-216 250.5,-216 256.5,-222 256.5,-228 256.5,-228 256.5,-240 256.5,-240 256.5,-246 250.5,-252 244.5,-252"/>
<text text-anchor="middle" x="208" y="-237.2" font-family="Helvetica,sans-Serif" font-size="11.00" fill="white">AES&#45;256&#45;GCM</text>
<text text-anchor="middle" x="208" y="-225.2" font-family="Helvetica,sans-Serif" font-size="11.00" fill="white">encrypt with K</text>
</g>
<!-- gen_key&#45;&gt;encrypt -->
<g id="edge2" class="edge">
<title>gen_key&#45;&gt;encrypt</title>
<path fill="none" stroke="black" d="M208,-287.7C208,-279.98 208,-270.71 208,-262.11"/>
<polygon fill="black" stroke="black" points="211.5,-262.1 208,-252.1 204.5,-262.1 211.5,-262.1"/>
</g>
<!-- ciphertext -->
<g id="node4" class="node">
<title>ciphertext</title>
<path fill="#95a5a6" stroke="black" d="M86,-180C86,-180 12,-180 12,-180 6,-180 0,-174 0,-168 0,-168 0,-156 0,-156 0,-150 6,-144 12,-144 12,-144 86,-144 86,-144 92,-144 98,-150 98,-156 98,-156 98,-168 98,-168 98,-174 92,-180 86,-180"/>
<text text-anchor="middle" x="49" y="-165.2" font-family="Helvetica,sans-Serif" font-size="11.00" fill="white">Ciphertext</text>
<text text-anchor="middle" x="49" y="-153.2" font-family="Helvetica,sans-Serif" font-size="11.00" fill="white">(stored in hub)</text>
</g>
<!-- encrypt&#45;&gt;ciphertext -->
<g id="edge3" class="edge">
<title>encrypt&#45;&gt;ciphertext</title>
<path fill="none" stroke="black" d="M169.1,-215.88C147.37,-206.31 120.1,-194.3 97.04,-184.15"/>
<polygon fill="black" stroke="black" points="98.33,-180.89 87.77,-180.07 95.51,-187.3 98.33,-180.89"/>
</g>
<!-- wrap_russell -->
<g id="node5" class="node">
<title>wrap_russell</title>
<path fill="#9b59b6" stroke="black" d="M187.5,-180C187.5,-180 128.5,-180 128.5,-180 122.5,-180 116.5,-174 116.5,-168 116.5,-168 116.5,-156 116.5,-156 116.5,-150 122.5,-144 128.5,-144 128.5,-144 187.5,-144 187.5,-144 193.5,-144 199.5,-150 199.5,-156 199.5,-156 199.5,-168 199.5,-168 199.5,-174 193.5,-180 187.5,-180"/>
<text text-anchor="middle" x="158" y="-165.2" font-family="Helvetica,sans-Serif" font-size="11.00" fill="white">Wrap K with</text>
<text text-anchor="middle" x="158" y="-153.2" font-family="Helvetica,sans-Serif" font-size="11.00" fill="white">russell.pub</text>
</g>
<!-- encrypt&#45;&gt;wrap_russell -->
<g id="edge4" class="edge">
<title>encrypt&#45;&gt;wrap_russell</title>
<path fill="none" stroke="black" d="M195.64,-215.7C189.77,-207.47 182.63,-197.48 176.16,-188.42"/>
<polygon fill="black" stroke="black" points="178.88,-186.21 170.22,-180.1 173.18,-190.28 178.88,-186.21"/>
</g>
<!-- wrap_ajax -->
<g id="node6" class="node">
<title>wrap_ajax</title>
<path fill="#9b59b6" stroke="black" d="M288.5,-180C288.5,-180 229.5,-180 229.5,-180 223.5,-180 217.5,-174 217.5,-168 217.5,-168 217.5,-156 217.5,-156 217.5,-150 223.5,-144 229.5,-144 229.5,-144 288.5,-144 288.5,-144 294.5,-144 300.5,-150 300.5,-156 300.5,-156 300.5,-168 300.5,-168 300.5,-174 294.5,-180 288.5,-180"/>
<text text-anchor="middle" x="259" y="-165.2" font-family="Helvetica,sans-Serif" font-size="11.00" fill="white">Wrap K with</text>
<text text-anchor="middle" x="259" y="-153.2" font-family="Helvetica,sans-Serif" font-size="11.00" fill="white">ajax.pub</text>
</g>
<!-- encrypt&#45;&gt;wrap_ajax -->
<g id="edge7" class="edge">
<title>encrypt&#45;&gt;wrap_ajax</title>
<path fill="none" stroke="black" d="M220.61,-215.7C226.6,-207.47 233.88,-197.48 240.48,-188.42"/>
<polygon fill="black" stroke="black" points="243.48,-190.25 246.54,-180.1 237.82,-186.13 243.48,-190.25"/>
</g>
<!-- wrap_admin -->
<g id="node7" class="node">
<title>wrap_admin</title>
<path fill="#9b59b6" stroke="black" d="M399.5,-180C399.5,-180 340.5,-180 340.5,-180 334.5,-180 328.5,-174 328.5,-168 328.5,-168 328.5,-156 328.5,-156 328.5,-150 334.5,-144 340.5,-144 340.5,-144 399.5,-144 399.5,-144 405.5,-144 411.5,-150 411.5,-156 411.5,-156 411.5,-168 411.5,-168 411.5,-174 405.5,-180 399.5,-180"/>
<text text-anchor="middle" x="370" y="-165.2" font-family="Helvetica,sans-Serif" font-size="11.00" fill="white">Wrap K with</text>
<text text-anchor="middle" x="370" y="-153.2" font-family="Helvetica,sans-Serif" font-size="11.00" fill="white">admin.pub</text>
</g>
<!-- encrypt&#45;&gt;wrap_admin -->
<g id="edge10" class="edge">
<title>encrypt&#45;&gt;wrap_admin</title>
<path fill="none" stroke="black" d="M247.63,-215.88C269.78,-206.31 297.56,-194.3 321.06,-184.15"/>
<polygon fill="black" stroke="black" points="322.71,-187.25 330.5,-180.07 319.93,-180.82 322.71,-187.25"/>
</g>
<!-- key_russell -->
<g id="node8" class="node">
<title>key_russell</title>
<path fill="#f39c12" stroke="black" d="M176.5,-108C176.5,-108 99.5,-108 99.5,-108 93.5,-108 87.5,-102 87.5,-96 87.5,-96 87.5,-84 87.5,-84 87.5,-78 93.5,-72 99.5,-72 99.5,-72 176.5,-72 176.5,-72 182.5,-72 188.5,-78 188.5,-84 188.5,-84 188.5,-96 188.5,-96 188.5,-102 182.5,-108 176.5,-108"/>
<text text-anchor="middle" x="138" y="-87.2" font-family="Helvetica,sans-Serif" font-size="11.00" fill="white">wrapped_key_1</text>
</g>
<!-- wrap_russell&#45;&gt;key_russell -->
<g id="edge5" class="edge">
<title>wrap_russell&#45;&gt;key_russell</title>
<path fill="none" stroke="black" d="M153.06,-143.7C150.83,-135.9 148.15,-126.51 145.67,-117.83"/>
<polygon fill="black" stroke="black" points="149,-116.76 142.89,-108.1 142.27,-118.68 149,-116.76"/>
</g>
<!-- key_ajax -->
<g id="node9" class="node">
<title>key_ajax</title>
<path fill="#f39c12" stroke="black" d="M297.5,-108C297.5,-108 220.5,-108 220.5,-108 214.5,-108 208.5,-102 208.5,-96 208.5,-96 208.5,-84 208.5,-84 208.5,-78 214.5,-72 220.5,-72 220.5,-72 297.5,-72 297.5,-72 303.5,-72 309.5,-78 309.5,-84 309.5,-84 309.5,-96 309.5,-96 309.5,-102 303.5,-108 297.5,-108"/>
<text text-anchor="middle" x="259" y="-87.2" font-family="Helvetica,sans-Serif" font-size="11.00" fill="white">wrapped_key_2</text>
</g>
<!-- wrap_ajax&#45;&gt;key_ajax -->
<g id="edge8" class="edge">
<title>wrap_ajax&#45;&gt;key_ajax</title>
<path fill="none" stroke="black" d="M259,-143.7C259,-135.98 259,-126.71 259,-118.11"/>
<polygon fill="black" stroke="black" points="262.5,-118.1 259,-108.1 255.5,-118.1 262.5,-118.1"/>
</g>
<!-- key_admin -->
<g id="node10" class="node">
<title>key_admin</title>
<path fill="#f39c12" stroke="black" d="M418.5,-108C418.5,-108 341.5,-108 341.5,-108 335.5,-108 329.5,-102 329.5,-96 329.5,-96 329.5,-84 329.5,-84 329.5,-78 335.5,-72 341.5,-72 341.5,-72 418.5,-72 418.5,-72 424.5,-72 430.5,-78 430.5,-84 430.5,-84 430.5,-96 430.5,-96 430.5,-102 424.5,-108 418.5,-108"/>
<text text-anchor="middle" x="380" y="-87.2" font-family="Helvetica,sans-Serif" font-size="11.00" fill="white">wrapped_key_3</text>
</g>
<!-- wrap_admin&#45;&gt;key_admin -->
<g id="edge11" class="edge">
<title>wrap_admin&#45;&gt;key_admin</title>
<path fill="none" stroke="black" d="M372.47,-143.7C373.57,-135.98 374.9,-126.71 376.13,-118.11"/>
<polygon fill="black" stroke="black" points="379.61,-118.5 377.56,-108.1 372.68,-117.51 379.61,-118.5"/>
</g>
<!-- russell_decrypt -->
<g id="node11" class="node">
<title>russell_decrypt</title>
<path fill="#2ecc71" stroke="black" d="M176,-36C176,-36 94,-36 94,-36 88,-36 82,-30 82,-24 82,-24 82,-12 82,-12 82,-6 88,0 94,0 94,0 176,0 176,0 182,0 188,-6 188,-12 188,-12 188,-24 188,-24 188,-30 182,-36 176,-36"/>
<text text-anchor="middle" x="135" y="-21.2" font-family="Helvetica,sans-Serif" font-size="11.00" fill="white">russell decrypts</text>
<text text-anchor="middle" x="135" y="-9.2" font-family="Helvetica,sans-Serif" font-size="11.00" fill="white">with private key</text>
</g>
<!-- key_russell&#45;&gt;russell_decrypt -->
<g id="edge6" class="edge">
<title>key_russell&#45;&gt;russell_decrypt</title>
<path fill="none" stroke="black" d="M137.26,-71.7C136.93,-63.98 136.53,-54.71 136.16,-46.11"/>
<polygon fill="black" stroke="black" points="139.66,-45.95 135.73,-36.1 132.66,-46.25 139.66,-45.95"/>
</g>
<!-- ajax_decrypt -->
<g id="node12" class="node">
<title>ajax_decrypt</title>
<path fill="#2ecc71" stroke="black" d="M300,-36C300,-36 218,-36 218,-36 212,-36 206,-30 206,-24 206,-24 206,-12 206,-12 206,-6 212,0 218,0 218,0 300,0 300,0 306,0 312,-6 312,-12 312,-12 312,-24 312,-24 312,-30 306,-36 300,-36"/>
<text text-anchor="middle" x="259" y="-21.2" font-family="Helvetica,sans-Serif" font-size="11.00" fill="white">ajax decrypts</text>
<text text-anchor="middle" x="259" y="-9.2" font-family="Helvetica,sans-Serif" font-size="11.00" fill="white">with private key</text>
</g>
<!-- key_ajax&#45;&gt;ajax_decrypt -->
<g id="edge9" class="edge">
<title>key_ajax&#45;&gt;ajax_decrypt</title>
<path fill="none" stroke="black" d="M259,-71.7C259,-63.98 259,-54.71 259,-46.11"/>
<polygon fill="black" stroke="black" points="262.5,-46.1 259,-36.1 255.5,-46.1 262.5,-46.1"/>
</g>
<!-- admin_decrypt -->
<g id="node13" class="node">
<title>admin_decrypt</title>
<path fill="#2ecc71" stroke="black" d="M424,-36C424,-36 342,-36 342,-36 336,-36 330,-30 330,-24 330,-24 330,-12 330,-12 330,-6 336,0 342,0 342,0 424,0 424,0 430,0 436,-6 436,-12 436,-12 436,-24 436,-24 436,-30 430,-36 424,-36"/>
<text text-anchor="middle" x="383" y="-21.2" font-family="Helvetica,sans-Serif" font-size="11.00" fill="white">admin decrypts</text>
<text text-anchor="middle" x="383" y="-9.2" font-family="Helvetica,sans-Serif" font-size="11.00" fill="white">with private key</text>
</g>
<!-- key_admin&#45;&gt;admin_decrypt -->
<g id="edge12" class="edge">
<title>key_admin&#45;&gt;admin_decrypt</title>
<path fill="none" stroke="black" d="M380.74,-71.7C381.07,-63.98 381.47,-54.71 381.84,-46.11"/>
<polygon fill="black" stroke="black" points="385.34,-46.25 382.27,-36.1 378.34,-45.95 385.34,-46.25"/>
</g>
</g>
</svg>
