<?xml version="1.0" encoding="UTF-8" standalone="no"?>
<!DOCTYPE svg PUBLIC "-//W3C//DTD SVG 1.1//EN"
 "http://www.w3.org/Graphics/SVG/1.1/DTD/svg11.dtd">
<!-- Generated by graphviz version 2.43.0 (0)
 -->
<!-- Title: e2e Pages: 1 -->
<svg width="1558pt" height="182pt"
 viewBox="0.00 0.00 1558.00 182.00" xmlns="http://www.w3.org/2000/svg" xmlns:xlink="http://www.w3.org/1999/xlink">
<g id="graph0" class="graph" transform="scale(1 1) rotate(0) translate(4 178)">
<title>e2e</title>
<g id="clust1" class="cluster">
<title>cluster_sender</title>
<polygon fill="transparent" stroke="#666666" stroke-dasharray="5,2" points="8,-91 8,-166 794,-166 794,-91 8,-91"/>
<text text-anchor="middle" x="401" y="-150.8" font-family="Helvetica,sans-Serif" font-size="14.00">Sender</text>
</g>
<g id="clust2" class="cluster">
<title>cluster_hub</title>
<polygon fill="transparent" stroke="#666666" stroke-dasharray="5,2" points="814,-91 814,-166 1068.5,-166 1068.5,-91 814,-91"/>
<text text-anchor="middle" x="941.25" y="-150.8" font-family="Helvetica,sans-Serif" font-size="14.00">Hub (dumb pipe)</text>
</g>
<g id="clust3" class="cluster">
<title>cluster_recipient</title>
<polygon fill="transparent" stroke="#666666" stroke-dasharray="5,2" points="940,-8 940,-83 1542,-83 1542,-8 940,-8"/>
<text text-anchor="middle" x="1241" y="-67.8" font-family="Helvetica,sans-Serif" font-size="14.00">Recipient</text>
</g>
<!-- fetch_pubkey -->
<g id="node1" class="node">
<title>fetch_pubkey</title>
<path fill="#4a90d9" stroke="black" d="M117,-135C117,-135 28,-135 28,-135 22,-135 16,-129 16,-123 16,-123 16,-111 16,-111 16,-105 22,-99 28,-99 28,-99 117,-99 117,-99 123,-99 129,-105 129,-111 129,-111 129,-123 129,-123 129,-129 123,-135 117,-135"/>
<text text-anchor="middle" x="72.5" y="-120.2" font-family="Helvetica,sans-Serif" font-size="11.00" fill="white">1. Fetch recipient</text>
<text text-anchor="middle" x="72.5" y="-108.2" font-family="Helvetica,sans-Serif" font-size="11.00" fill="white">public key</text>
</g>
<!-- gen_key -->
<g id="node2" class="node">
<title>gen_key</title>
<path fill="#4a90d9" stroke="black" d="M288,-135C288,-135 177,-135 177,-135 171,-135 165,-129 165,-123 165,-123 165,-111 165,-111 165,-105 171,-99 177,-99 177,-99 288,-99 288,-99 294,-99 300,-105 300,-111 300,-111 300,-123 300,-123 300,-129 294,-135 288,-135"/>
<text text-anchor="middle" x="232.5" y="-120.2" font-family="Helvetica,sans-Serif" font-size="11.00" fill="white">2. Generate random</text>
<text text-anchor="middle" x="232.5" y="-108.2" font-family="Helvetica,sans-Serif" font-size="11.00" fill="white">AES&#45;256&#45;GCM key (K)</text>
</g>
<!-- fetch_pubkey&#45;&gt;gen_key -->
<g id="edge1" class="edge">
<title>fetch_pubkey&#45;&gt;gen_key</title>
<path fill="none" stroke="black" d="M129.2,-117C137.51,-117 146.18,-117 154.83,-117"/>
<polygon fill="black" stroke="black" points="154.93,-120.5 164.93,-117 154.93,-113.5 154.93,-120.5"/>
</g>
<!-- encrypt_body -->
<g id="node3" class="node">
<title>encrypt_body</title>
<path fill="#4a90d9" stroke="black" d="M450,-135C450,-135 348,-135 348,-135 342,-135 336,-129 336,-123 336,-123 336,-111 336,-111 336,-105 342,-99 348,-99 348,-99 450,-99 450,-99 456,-99 462,-105 462,-111 462,-111 462,-123 462,-123 462,-129 456,-135 450,-135"/>
<text text-anchor="middle" x="399" y="-120.2" font-family="Helvetica,sans-Serif" font-size="11.00" fill="white">3. Encrypt message</text>
<text text-anchor="middle" x="399" y="-108.2" font-family="Helvetica,sans-Serif" font-size="11.00" fill="white">with K</text>
</g>
<!-- gen_key&#45;&gt;encrypt_body -->
<g id="edge2" class="edge">
<title>gen_key&#45;&gt;encrypt_body</title>
<path fill="none" stroke="black" d="M300.41,-117C308.76,-117 317.32,-117 325.75,-117"/>
<polygon fill="black" stroke="black" points="325.93,-120.5 335.93,-117 325.93,-113.5 325.93,-120.5"/>
</g>
<!-- wrap_key -->
<g id="node4" class="node">
<title>wrap_key</title>
<path fill="#4a90d9" stroke="black" d="M620,-135C620,-135 510,-135 510,-135 504,-135 498,-129 498,-123 498,-123 498,-111 498,-111 498,-105 504,-99 510,-99 510,-99 620,-99 620,-99 626,-99 632,-105 632,-111 632,-111 632,-123 632,-123 632,-129 626,-135 620,-135"/>
<text text-anchor="middle" x="565" y="-120.2" font-family="Helvetica,sans-Serif" font-size="11.00" fill="white">4. Wrap K with</text>
<text text-anchor="middle" x="565" y="-108.2" font-family="Helvetica,sans-Serif" font-size="11.00" fill="white">recipient SSH pubkey</text>
</g>
<!-- encrypt_body&#45;&gt;wrap_key -->
<g id="edge3" class="edge">
<title>encrypt_body&#45;&gt;wrap_key</title>
<path fill="none" stroke="black" d="M462,-117C470.41,-117 479.12,-117 487.74,-117"/>
<polygon fill="black" stroke="black" points="487.81,-120.5 497.81,-117 487.81,-113.5 487.81,-120.5"/>
</g>
<!-- send_msg -->
<g id="node5" class="node">
<title>send_msg</title>
<path fill="#4a90d9" stroke="black" d="M774,-135C774,-135 680,-135 680,-135 674,-135 668,-129 668,-123 668,-123 668,-111 668,-111 668,-105 674,-99 680,-99 680,-99 774,-99 774,-99 780,-99 786,-105 786,-111 786,-111 786,-123 786,-123 786,-129 780,-135 774,-135"/>
<text text-anchor="middle" x="727" y="-120.2" font-family="Helvetica,sans-Serif" font-size="11.00" fill="white">5. Send ciphertext</text>
<text text-anchor="middle" x="727" y="-108.2" font-family="Helvetica,sans-Serif" font-size="11.00" fill="white">+ wrapped key</text>
</g>
<!-- wrap_key&#45;&gt;send_msg -->
<g id="edge4" class="edge">
<title>wrap_key&#45;&gt;send_msg</title>
<path fill="none" stroke="black" d="M632,-117C640.45,-117 649.11,-117 657.59,-117"/>
<polygon fill="black" stroke="black" points="657.82,-120.5 667.82,-117 657.82,-113.5 657.82,-120.5"/>
</g>
<!-- store_blob -->
<g id="node6" class="node">
<title>store_blob</title>
<path fill="#95a5a6" stroke="black" d="M900,-135C900,-135 834,-135 834,-135 828,-135 822,-129 822,-123 822,-123 822,-111 822,-111 822,-105 828,-99 834,-99 834,-99 900,-99 900,-99 906,-99 912,-105 912,-111 912,-111 912,-123 912,-123 912,-129 906,-135 900,-135"/>
<text text-anchor="middle" x="867" y="-120.2" font-family="Helvetica,sans-Serif" font-size="11.00" fill="white">Store opaque</text>
<text text-anchor="middle" x="867" y="-108.2" font-family="Helvetica,sans-Serif" font-size="11.00" fill="white">ciphertext</text>
</g>
<!-- send_msg&#45;&gt;store_blob -->
<g id="edge5" class="edge">
<title>send_msg&#45;&gt;store_blob</title>
<path fill="none" stroke="black" d="M786.12,-117C794.61,-117 803.32,-117 811.72,-117"/>
<polygon fill="black" stroke="black" points="811.78,-120.5 821.78,-117 811.78,-113.5 811.78,-120.5"/>
</g>
<!-- cant_read -->
<g id="node7" class="node">
<title>cant_read</title>
<path fill="#e74c3c" stroke="black" d="M1048.5,-135C1048.5,-135 967.5,-135 967.5,-135 961.5,-135 955.5,-129 955.5,-123 955.5,-123 955.5,-111 955.5,-111 955.5,-105 961.5,-99 967.5,-99 967.5,-99 1048.5,-99 1048.5,-99 1054.5,-99 1060.5,-105 1060.5,-111 1060.5,-111 1060.5,-123 1060.5,-123 1060.5,-129 1054.5,-135 1048.5,-135"/>
<text text-anchor="middle" x="1008" y="-120.2" font-family="Helvetica,sans-Serif" font-size="11.00" fill="white">Cannot decrypt</text>
<text text-anchor="middle" x="1008" y="-108.2" font-family="Helvetica,sans-Serif" font-size="11.00" fill="white">(no private key)</text>
</g>
<!-- store_blob&#45;&gt;cant_read -->
<g id="edge6" class="edge">
<title>store_blob&#45;&gt;cant_read</title>
<path fill="none" stroke="red" stroke-dasharray="5,2" d="M912.36,-117C922.83,-117 934.17,-117 945.24,-117"/>
<polygon fill="red" stroke="red" points="945.31,-120.5 955.31,-117 945.31,-113.5 945.31,-120.5"/>
</g>
<!-- fetch_msg -->
<g id="node8" class="node">
<title>fetch_msg</title>
<path fill="#2ecc71" stroke="black" d="M1056,-52C1056,-52 960,-52 960,-52 954,-52 948,-46 948,-40 948,-40 948,-28 948,-28 948,-22 954,-16 960,-16 960,-16 1056,-16 1056,-16 1062,-16 1068,-22 1068,-28 1068,-28 1068,-40 1068,-40 1068,-46 1062,-52 1056,-52"/>
<text text-anchor="middle" x="1008" y="-37.2" font-family="Helvetica,sans-Serif" font-size="11.00" fill="white">6. Fetch encrypted</text>
<text text-anchor="middle" x="1008" y="-25.2" font-family="Helvetica,sans-Serif" font-size="11.00" fill="white">message</text>
</g>
<!-- store_blob&#45;&gt;fetch_msg -->
<g id="edge7" class="edge">
<title>store_blob&#45;&gt;fetch_msg</title>
<path fill="none" stroke="black" d="M898.16,-98.99C918.51,-86.84 945.57,-70.68 967.62,-57.51"/>
<polygon fill="black" stroke="black" points="969.63,-60.39 976.42,-52.26 966.04,-54.38 969.63,-60.39"/>
</g>
<!-- unwrap_key -->
<g id="node9" class="node">
<title>unwrap_key</title>
<path fill="#2ecc71" stroke="black" d="M1203,-52C1203,-52 1116,-52 1116,-52 1110,-52 1104,-46 1104,-40 1104,-40 1104,-28 1104,-28 1104,-22 1110,-16 1116,-16 1116,-16 1203,-16 1203,-16 1209,-16 1215,-22 1215,-28 1215,-28 1215,-40 1215,-40 1215,-46 1209,-52 1203,-52"/>
<text text-anchor="middle" x="1159.5" y="-37.2" font-family="Helvetica,sans-Serif" font-size="11.00" fill="white">7. Unwrap K with</text>
<text text-anchor="middle" x="1159.5" y="-25.2" font-family="Helvetica,sans-Serif" font-size="11.00" fill="white">SSH private key</text>
</g>
<!-- fetch_msg&#45;&gt;unwrap_key -->
<g id="edge8" class="edge">
<title>fetch_msg&#45;&gt;unwrap_key</title>
<path fill="none" stroke="black" d="M1068.09,-34C1076.44,-34 1085.07,-34 1093.53,-34"/>
<polygon fill="black" stroke="black" points="1093.73,-37.5 1103.73,-34 1093.73,-30.5 1093.73,-37.5"/>
</g>
<!-- decrypt_body -->
<g id="node10" class="node">
<title>decrypt_body</title>
<path fill="#2ecc71" stroke="black" d="M1367,-52C1367,-52 1263,-52 1263,-52 1257,-52 1251,-46 1251,-40 1251,-40 1251,-28 1251,-28 1251,-22 1257,-16 1263,-16 1263,-16 1367,-16 1367,-16 1373,-16 1379,-22 1379,-28 1379,-28 1379,-40 1379,-40 1379,-46 1373,-52 1367,-52"/>
<text text-anchor="middle" x="1315" y="-37.2" font-family="Helvetica,sans-Serif" font-size="11.00" fill="white">8. Decrypt message</text>
<text text-anchor="middle" x="1315" y="-25.2" font-family="Helvetica,sans-Serif" font-size="11.00" fill="white">with K</text>
</g>
<!-- unwrap_key&#45;&gt;decrypt_body -->
<g id="edge9" class="edge">
<title>unwrap_key&#45;&gt;decrypt_body</title>
<path fill="none" stroke="black" d="M1215.05,-34C1223.41,-34 1232.16,-34 1240.84,-34"/>
<polygon fill="black" stroke="black" points="1240.98,-37.5 1250.98,-34 1240.98,-30.5 1240.98,-37.5"/>
</g>
<!-- plaintext -->
<g id="node11" class="node">
<title>plaintext</title>
<path fill="#2ecc71" stroke="black" d="M1522,-52C1522,-52 1427,-52 1427,-52 1421,-52 1415,-46 1415,-40 1415,-40 1415,-28 1415,-28 1415,-22 1421,-16 1427,-16 1427,-16 1522,-16 1522,-16 1528,-16 1534,-22 1534,-28 1534,-28 1534,-40 1534,-40 1534,-46 1528,-52 1522,-52"/>
<text text-anchor="middle" x="1474.5" y="-31.2" font-family="Helvetica,sans-Serif" font-size="11.00" fill="white">Plaintext message</text>
</g>
<!-- decrypt_body&#45;&gt;plaintext -->
<g id="edge10" class="edge">
<title>decrypt_body&#45;&gt;plaintext</title>
<path fill="none" stroke="black" d="M1379.15,-34C1387.55,-34 1396.19,-34 1404.68,-34"/>
<polygon fill="black" stroke="black" points="1404.93,-37.5 1414.93,-34 1404.93,-30.5 1404.93,-37.5"/>
</g>
</g>
</svg>
