<?xml version="1.0" encoding="UTF-8" standalone="no"?>
<!DOCTYPE svg PUBLIC "-//W3C//DTD SVG 1.1//EN"
 "http://www.w3.org/Graphics/SVG/1.1/DTD/svg11.dtd">
<!-- Generated by graphviz version 2.43.0 (0)
 -->
<!-- Title: recipient_controls Pages: 1 -->
<svg width="806pt" height="289pt"
 viewBox="0.00 0.00 805.74 289.00" xmlns="http://www.w3.org/2000/svg" xmlns:xlink="http://www.w3.org/1999/xlink">
<g id="graph0" class="graph" transform="scale(1 1) rotate(0) translate(4 285)">
<title>recipient_controls</title>
<!-- agent -->
<g id="node1" class="node">
<title>agent</title>
<path fill="#4a90d9" stroke="black" d="M416.5,-281C416.5,-281 328.5,-281 328.5,-281 322.5,-281 316.5,-275 316.5,-269 316.5,-269 316.5,-257 316.5,-257 316.5,-251 322.5,-245 328.5,-245 328.5,-245 416.5,-245 416.5,-245 422.5,-245 428.5,-251 428.5,-257 428.5,-257 428.5,-269 428.5,-269 428.5,-275 422.5,-281 416.5,-281"/>
<text text-anchor="middle" x="372.5" y="-260.2" font-family="Helvetica,sans-Serif" font-size="11.00" fill="white">Registered Agent</text>
</g>
<!-- accept_cmd -->
<g id="node2" class="node">
<title>accept_cmd</title>
<path fill="#9b59b6" stroke="black" d="M236,-208C236,-208 141,-208 141,-208 135,-208 129,-202 129,-196 129,-196 129,-184 129,-184 129,-178 135,-172 141,-172 141,-172 236,-172 236,-172 242,-172 248,-178 248,-184 248,-184 248,-196 248,-196 248,-202 242,-208 236,-208"/>
<text text-anchor="middle" x="188.5" y="-187.2" font-family="Helvetica,sans-Serif" font-size="11.00" fill="white">accept anon on|off</text>
</g>
<!-- agent&#45;&gt;accept_cmd -->
<g id="edge1" class="edge">
<title>agent&#45;&gt;accept_cmd</title>
<path fill="none" stroke="black" d="M328.43,-244.99C302.56,-235.01 269.68,-222.32 242.29,-211.76"/>
<polygon fill="black" stroke="black" points="243.44,-208.45 232.85,-208.11 240.92,-214.98 243.44,-208.45"/>
</g>
<!-- block_cmd -->
<g id="node3" class="node">
<title>block_cmd</title>
<path fill="#9b59b6" stroke="black" d="M378.5,-208C378.5,-208 278.5,-208 278.5,-208 272.5,-208 266.5,-202 266.5,-196 266.5,-196 266.5,-184 266.5,-184 266.5,-178 272.5,-172 278.5,-172 278.5,-172 378.5,-172 378.5,-172 384.5,-172 390.5,-178 390.5,-184 390.5,-184 390.5,-196 390.5,-196 390.5,-202 384.5,-208 378.5,-208"/>
<text text-anchor="middle" x="328.5" y="-187.2" font-family="Helvetica,sans-Serif" font-size="11.00" fill="white">block &lt;fingerprint&gt;</text>
</g>
<!-- agent&#45;&gt;block_cmd -->
<g id="edge2" class="edge">
<title>agent&#45;&gt;block_cmd</title>
<path fill="none" stroke="black" d="M361.85,-244.81C356.61,-236.35 350.18,-225.98 344.37,-216.61"/>
<polygon fill="black" stroke="black" points="347.3,-214.69 339.05,-208.03 341.35,-218.37 347.3,-214.69"/>
</g>
<!-- unblock_cmd -->
<g id="node4" class="node">
<title>unblock_cmd</title>
<path fill="#9b59b6" stroke="black" d="M534,-208C534,-208 421,-208 421,-208 415,-208 409,-202 409,-196 409,-196 409,-184 409,-184 409,-178 415,-172 421,-172 421,-172 534,-172 534,-172 540,-172 546,-178 546,-184 546,-184 546,-196 546,-196 546,-202 540,-208 534,-208"/>
<text text-anchor="middle" x="477.5" y="-187.2" font-family="Helvetica,sans-Serif" font-size="11.00" fill="white">unblock &lt;fingerprint&gt;</text>
</g>
<!-- agent&#45;&gt;unblock_cmd -->
<g id="edge3" class="edge">
<title>agent&#45;&gt;unblock_cmd</title>
<path fill="none" stroke="black" d="M397.65,-244.99C411.45,-235.67 428.74,-223.97 443.7,-213.86"/>
<polygon fill="black" stroke="black" points="445.87,-216.61 452.19,-208.11 441.95,-210.82 445.87,-216.61"/>
</g>
<!-- blocks_cmd -->
<g id="node5" class="node">
<title>blocks_cmd</title>
<path fill="#9b59b6" stroke="black" d="M611,-208C611,-208 576,-208 576,-208 570,-208 564,-202 564,-196 564,-196 564,-184 564,-184 564,-178 570,-172 576,-172 576,-172 611,-172 611,-172 617,-172 623,-178 623,-184 623,-184 623,-196 623,-196 623,-202 617,-208 611,-208"/>
<text text-anchor="middle" x="593.5" y="-193.2" font-family="Helvetica,sans-Serif" font-size="11.00" fill="white">blocks</text>
<text text-anchor="middle" x="593.5" y="-181.2" font-family="Helvetica,sans-Serif" font-size="11.00" fill="white">(list all)</text>
</g>
<!-- agent&#45;&gt;blocks_cmd -->
<g id="edge4" class="edge">
<title>agent&#45;&gt;blocks_cmd</title>
<path fill="none" stroke="black" d="M428.84,-247.21C465.09,-237.22 513.01,-223.13 554.5,-208 554.6,-207.97 554.69,-207.93 554.79,-207.9"/>
<polygon fill="black" stroke="black" points="555.79,-211.26 563.84,-204.37 553.25,-204.74 555.79,-211.26"/>
</g>
<!-- accept_on -->
<g id="node6" class="node">
<title>accept_on</title>
<path fill="#2ecc71" stroke="black" d="M113,-122C113,-122 12,-122 12,-122 6,-122 0,-116 0,-110 0,-110 0,-98 0,-98 0,-92 6,-86 12,-86 12,-86 113,-86 113,-86 119,-86 125,-92 125,-98 125,-98 125,-110 125,-110 125,-116 119,-122 113,-122"/>
<text text-anchor="middle" x="62.5" y="-107.2" font-family="Helvetica,sans-Serif" font-size="11.00" fill="white">accept_anon = true</text>
<text text-anchor="middle" x="62.5" y="-95.2" font-family="Helvetica,sans-Serif" font-size="11.00" fill="white">(default)</text>
</g>
<!-- accept_cmd&#45;&gt;accept_on -->
<g id="edge5" class="edge">
<title>accept_cmd&#45;&gt;accept_on</title>
<path fill="none" stroke="black" d="M162.7,-171.8C143.67,-159.12 117.6,-141.73 96.81,-127.88"/>
<polygon fill="black" stroke="black" points="98.53,-124.81 88.27,-122.18 94.65,-130.64 98.53,-124.81"/>
</g>
<!-- accept_off -->
<g id="node7" class="node">
<title>accept_off</title>
<path fill="#e74c3c" stroke="black" d="M259.5,-122C259.5,-122 155.5,-122 155.5,-122 149.5,-122 143.5,-116 143.5,-110 143.5,-110 143.5,-98 143.5,-98 143.5,-92 149.5,-86 155.5,-86 155.5,-86 259.5,-86 259.5,-86 265.5,-86 271.5,-92 271.5,-98 271.5,-98 271.5,-110 271.5,-110 271.5,-116 265.5,-122 259.5,-122"/>
<text text-anchor="middle" x="207.5" y="-101.2" font-family="Helvetica,sans-Serif" font-size="11.00" fill="white">accept_anon = false</text>
</g>
<!-- accept_cmd&#45;&gt;accept_off -->
<g id="edge6" class="edge">
<title>accept_cmd&#45;&gt;accept_off</title>
<path fill="none" stroke="black" d="M192.44,-171.6C195.03,-160.14 198.47,-144.93 201.41,-131.93"/>
<polygon fill="black" stroke="black" points="204.84,-132.62 203.63,-122.1 198.01,-131.08 204.84,-132.62"/>
</g>
<!-- block_table -->
<g id="node8" class="node">
<title>block_table</title>
<path fill="#f39c12" stroke="black" d="M465,-122C465,-124.21 434.3,-126 396.5,-126 358.7,-126 328,-124.21 328,-122 328,-122 328,-86 328,-86 328,-83.79 358.7,-82 396.5,-82 434.3,-82 465,-83.79 465,-86 465,-86 465,-122 465,-122"/>
<path fill="none" stroke="black" d="M465,-122C465,-119.79 434.3,-118 396.5,-118 358.7,-118 328,-119.79 328,-122"/>
<text text-anchor="middle" x="396.5" y="-107.2" font-family="Helvetica,sans-Serif" font-size="11.00" fill="white">blocks table</text>
<text text-anchor="middle" x="396.5" y="-95.2" font-family="Helvetica,sans-Serif" font-size="11.00" fill="white">(agent_id, fingerprint)</text>
</g>
<!-- block_cmd&#45;&gt;block_table -->
<g id="edge7" class="edge">
<title>block_cmd&#45;&gt;block_table</title>
<path fill="none" stroke="black" d="M342.59,-171.6C351.33,-160.79 362.79,-146.64 372.89,-134.16"/>
<polygon fill="black" stroke="black" points="375.72,-136.23 379.29,-126.26 370.28,-131.83 375.72,-136.23"/>
</g>
<!-- unblock_cmd&#45;&gt;block_table -->
<g id="edge8" class="edge">
<title>unblock_cmd&#45;&gt;block_table</title>
<path fill="none" stroke="black" d="M460.72,-171.6C450.2,-160.69 436.39,-146.37 424.28,-133.81"/>
<polygon fill="black" stroke="black" points="426.46,-131.03 417,-126.26 421.42,-135.88 426.46,-131.03"/>
</g>
<!-- incoming -->
<g id="node9" class="node">
<title>incoming</title>
<path fill="#95a5a6" stroke="black" d="M782.5,-281C782.5,-281 656.5,-281 656.5,-281 650.5,-281 644.5,-275 644.5,-269 644.5,-269 644.5,-257 644.5,-257 644.5,-251 650.5,-245 656.5,-245 656.5,-245 782.5,-245 782.5,-245 788.5,-245 794.5,-251 794.5,-257 794.5,-257 794.5,-269 794.5,-269 794.5,-275 788.5,-281 782.5,-281"/>
<text text-anchor="middle" x="719.5" y="-260.2" font-family="Helvetica,sans-Serif" font-size="11.00" fill="white">Incoming anon message</text>
</g>
<!-- check1 -->
<g id="node10" class="node">
<title>check1</title>
<path fill="#e67e22" stroke="black" d="M707.8,-205.32C707.8,-205.32 652.72,-192.68 652.72,-192.68 646.87,-191.34 646.87,-188.66 652.72,-187.32 652.72,-187.32 707.8,-174.68 707.8,-174.68 713.65,-173.34 725.35,-173.34 731.2,-174.68 731.2,-174.68 786.28,-187.32 786.28,-187.32 792.13,-188.66 792.13,-191.34 786.28,-192.68 786.28,-192.68 731.2,-205.32 731.2,-205.32 725.35,-206.66 713.65,-206.66 707.8,-205.32"/>
<text text-anchor="middle" x="719.5" y="-187.2" font-family="Helvetica,sans-Serif" font-size="11.00" fill="white">accept_anon?</text>
</g>
<!-- incoming&#45;&gt;check1 -->
<g id="edge9" class="edge">
<title>incoming&#45;&gt;check1</title>
<path fill="none" stroke="black" d="M719.5,-244.81C719.5,-236.79 719.5,-227.05 719.5,-218.07"/>
<polygon fill="black" stroke="black" points="723,-218.03 719.5,-208.03 716,-218.03 723,-218.03"/>
</g>
<!-- check2 -->
<g id="node11" class="node">
<title>check2</title>
<path fill="#e67e22" stroke="black" d="M647.09,-118.27C647.09,-118.27 614.85,-107.73 614.85,-107.73 609.15,-105.86 609.15,-102.14 614.85,-100.27 614.85,-100.27 647.09,-89.73 647.09,-89.73 652.8,-87.86 664.2,-87.86 669.91,-89.73 669.91,-89.73 702.15,-100.27 702.15,-100.27 707.85,-102.14 707.85,-105.86 702.15,-107.73 702.15,-107.73 669.91,-118.27 669.91,-118.27 664.2,-120.14 652.8,-120.14 647.09,-118.27"/>
<text text-anchor="middle" x="658.5" y="-101.2" font-family="Helvetica,sans-Serif" font-size="11.00" fill="white">blocked?</text>
</g>
<!-- check1&#45;&gt;check2 -->
<g id="edge10" class="edge">
<title>check1&#45;&gt;check2</title>
<path fill="none" stroke="black" d="M708.87,-174.37C699.4,-161.32 685.4,-142.04 674.56,-127.11"/>
<polygon fill="black" stroke="black" points="677.31,-124.94 668.6,-118.91 671.64,-129.05 677.31,-124.94"/>
<text text-anchor="middle" x="701.5" y="-146.8" font-family="Helvetica,sans-Serif" font-size="9.00">yes</text>
</g>
<!-- rejected -->
<g id="node13" class="node">
<title>rejected</title>
<path fill="#e74c3c" stroke="black" d="M748,-36C748,-36 707,-36 707,-36 701,-36 695,-30 695,-24 695,-24 695,-12 695,-12 695,-6 701,0 707,0 707,0 748,0 748,0 754,0 760,-6 760,-12 760,-12 760,-24 760,-24 760,-30 754,-36 748,-36"/>
<text text-anchor="middle" x="727.5" y="-15.2" font-family="Helvetica,sans-Serif" font-size="11.00" fill="white">Rejected</text>
</g>
<!-- check1&#45;&gt;rejected -->
<g id="edge11" class="edge">
<title>check1&#45;&gt;rejected</title>
<path fill="none" stroke="black" d="M723.84,-172.8C730.09,-147.46 740.34,-96.92 735.5,-54 735.21,-51.45 734.81,-48.82 734.34,-46.2"/>
<polygon fill="black" stroke="black" points="737.75,-45.38 732.27,-36.31 730.89,-46.82 737.75,-45.38"/>
<text text-anchor="middle" x="743.5" y="-101.8" font-family="Helvetica,sans-Serif" font-size="9.00">no</text>
</g>
<!-- delivered -->
<g id="node12" class="node">
<title>delivered</title>
<path fill="#2ecc71" stroke="black" d="M644,-36C644,-36 599,-36 599,-36 593,-36 587,-30 587,-24 587,-24 587,-12 587,-12 587,-6 593,0 599,0 599,0 644,0 644,0 650,0 656,-6 656,-12 656,-12 656,-24 656,-24 656,-30 650,-36 644,-36"/>
<text text-anchor="middle" x="621.5" y="-15.2" font-family="Helvetica,sans-Serif" font-size="11.00" fill="white">Delivered</text>
</g>
<!-- check2&#45;&gt;delivered -->
<g id="edge12" class="edge">
<title>check2&#45;&gt;delivered</title>
<path fill="none" stroke="black" d="M643.07,-91.04C635.36,-84.08 626.78,-74.59 622.5,-64 620.31,-58.57 619.31,-52.45 619,-46.53"/>
<polygon fill="black" stroke="black" points="622.5,-46.27 619.07,-36.24 615.5,-46.22 622.5,-46.27"/>
<text text-anchor="middle" x="649.5" y="-56.8" font-family="Helvetica,sans-Serif" font-size="9.00">not blocked</text>
</g>
<!-- check2&#45;&gt;rejected -->
<g id="edge13" class="edge">
<title>check2&#45;&gt;rejected</title>
<path fill="none" stroke="black" d="M669.59,-89.5C679.61,-77.3 694.64,-59 706.87,-44.11"/>
<polygon fill="black" stroke="black" points="709.69,-46.19 713.33,-36.25 704.28,-41.75 709.69,-46.19"/>
<text text-anchor="middle" x="715.5" y="-56.8" font-family="Helvetica,sans-Serif" font-size="9.00">blocked</text>
</g>
</g>
</svg>
