<?xml version="1.0" encoding="UTF-8" standalone="no"?>
<!DOCTYPE svg PUBLIC "-//W3C//DTD SVG 1.1//EN"
 "http://www.w3.org/Graphics/SVG/1.1/DTD/svg11.dtd">
<!-- Generated by graphviz version 2.43.0 (0)
 -->
<!-- Title: trust Pages: 1 -->
<svg width="457pt" height="208pt"
 viewBox="0.00 0.00 456.50 208.00" xmlns="http://www.w3.org/2000/svg" xmlns:xlink="http://www.w3.org/1999/xlink">
<g id="graph0" class="graph" transform="scale(1 1) rotate(0) translate(4 204)">
<title>trust</title>
<!-- admin -->
<g id="node1" class="node">
<title>admin</title>
<path fill="#e74c3c" stroke="black" d="M213,-200C213,-200 145,-200 145,-200 139,-200 133,-194 133,-188 133,-188 133,-176 133,-176 133,-170 139,-164 145,-164 145,-164 213,-164 213,-164 219,-164 225,-170 225,-176 225,-176 225,-188 225,-188 225,-194 219,-200 213,-200"/>
<text text-anchor="middle" x="179" y="-185.2" font-family="Helvetica,sans-Serif" font-size="11.00" fill="white">admin</text>
<text text-anchor="middle" x="179" y="-173.2" font-family="Helvetica,sans-Serif" font-size="11.00" fill="white">(root of trust)</text>
</g>
<!-- ajax -->
<g id="node2" class="node">
<title>ajax</title>
<path fill="#4a90d9" stroke="black" d="M195,-118C195,-118 165,-118 165,-118 159,-118 153,-112 153,-106 153,-106 153,-94 153,-94 153,-88 159,-82 165,-82 165,-82 195,-82 195,-82 201,-82 207,-88 207,-94 207,-94 207,-106 207,-106 207,-112 201,-118 195,-118"/>
<text text-anchor="middle" x="180" y="-97.2" font-family="Helvetica,sans-Serif" font-size="11.00" fill="white">ajax</text>
</g>
<!-- admin&#45;&gt;ajax -->
<g id="edge1" class="edge">
<title>admin&#45;&gt;ajax</title>
<path fill="none" stroke="black" d="M179.22,-163.64C179.35,-153.3 179.51,-139.94 179.66,-128.22"/>
<polygon fill="black" stroke="black" points="183.16,-128.09 179.79,-118.05 176.16,-128.01 183.16,-128.09"/>
<text text-anchor="middle" x="195.5" y="-138.8" font-family="Helvetica,sans-Serif" font-size="9.00">invited</text>
</g>
<!-- russell -->
<g id="node3" class="node">
<title>russell</title>
<path fill="#4a90d9" stroke="black" d="M309,-118C309,-118 279,-118 279,-118 273,-118 267,-112 267,-106 267,-106 267,-94 267,-94 267,-88 273,-82 279,-82 279,-82 309,-82 309,-82 315,-82 321,-88 321,-94 321,-94 321,-106 321,-106 321,-112 315,-118 309,-118"/>
<text text-anchor="middle" x="294" y="-97.2" font-family="Helvetica,sans-Serif" font-size="11.00" fill="white">russell</text>
</g>
<!-- admin&#45;&gt;russell -->
<g id="edge2" class="edge">
<title>admin&#45;&gt;russell</title>
<path fill="none" stroke="black" d="M203.67,-163.84C220.35,-152.24 242.56,-136.78 260.79,-124.11"/>
<polygon fill="black" stroke="black" points="263.16,-126.72 269.37,-118.13 259.16,-120.97 263.16,-126.72"/>
<text text-anchor="middle" x="259.5" y="-138.8" font-family="Helvetica,sans-Serif" font-size="9.00">invited</text>
</g>
<!-- blah -->
<g id="node4" class="node">
<title>blah</title>
<path fill="#2ecc71" stroke="black" d="M107,-118C107,-118 27,-118 27,-118 21,-118 15,-112 15,-106 15,-106 15,-94 15,-94 15,-88 21,-82 27,-82 27,-82 107,-82 107,-82 113,-82 119,-88 119,-94 119,-94 119,-106 119,-106 119,-112 113,-118 107,-118"/>
<text text-anchor="middle" x="67" y="-103.2" font-family="Helvetica,sans-Serif" font-size="11.00" fill="white">blah</text>
<text text-anchor="middle" x="67" y="-91.2" font-family="Helvetica,sans-Serif" font-size="11.00" fill="white">(public channel)</text>
</g>
<!-- admin&#45;&gt;blah -->
<g id="edge3" class="edge">
<title>admin&#45;&gt;blah</title>
<path fill="none" stroke="black" d="M154.97,-163.84C138.73,-152.24 117.1,-136.78 99.35,-124.11"/>
<polygon fill="black" stroke="black" points="101.16,-121.1 90.99,-118.13 97.09,-126.79 101.16,-121.1"/>
<text text-anchor="middle" x="147.5" y="-138.8" font-family="Helvetica,sans-Serif" font-size="9.00">created</text>
</g>
<!-- future1 -->
<g id="node8" class="node">
<title>future1</title>
<path fill="#bdc3c7" stroke="black" stroke-dasharray="5,2" d="M210.5,-36C210.5,-36 149.5,-36 149.5,-36 143.5,-36 137.5,-30 137.5,-24 137.5,-24 137.5,-12 137.5,-12 137.5,-6 143.5,0 149.5,0 149.5,0 210.5,0 210.5,0 216.5,0 222.5,-6 222.5,-12 222.5,-12 222.5,-24 222.5,-24 222.5,-30 216.5,-36 210.5,-36"/>
<text text-anchor="middle" x="180" y="-15.2" font-family="Helvetica,sans-Serif" font-size="11.00" fill="white">future agent</text>
</g>
<!-- ajax&#45;&gt;future1 -->
<g id="edge5" class="edge">
<title>ajax&#45;&gt;future1</title>
<path fill="none" stroke="black" d="M180,-81.64C180,-71.3 180,-57.94 180,-46.22"/>
<polygon fill="black" stroke="black" points="183.5,-46.05 180,-36.05 176.5,-46.05 183.5,-46.05"/>
<text text-anchor="middle" x="195.5" y="-56.8" font-family="Helvetica,sans-Serif" font-size="9.00">invited</text>
</g>
<!-- anarchy -->
<g id="node5" class="node">
<title>anarchy</title>
<path fill="#2ecc71" stroke="black" d="M333,-36C333,-36 253,-36 253,-36 247,-36 241,-30 241,-24 241,-24 241,-12 241,-12 241,-6 247,0 253,0 253,0 333,0 333,0 339,0 345,-6 345,-12 345,-12 345,-24 345,-24 345,-30 339,-36 333,-36"/>
<text text-anchor="middle" x="293" y="-21.2" font-family="Helvetica,sans-Serif" font-size="11.00" fill="white">anarchy</text>
<text text-anchor="middle" x="293" y="-9.2" font-family="Helvetica,sans-Serif" font-size="11.00" fill="white">(public channel)</text>
</g>
<!-- russell&#45;&gt;anarchy -->
<g id="edge4" class="edge">
<title>russell&#45;&gt;anarchy</title>
<path fill="none" stroke="black" d="M293.78,-81.64C293.65,-71.3 293.49,-57.94 293.34,-46.22"/>
<polygon fill="black" stroke="black" points="296.84,-46.01 293.21,-36.05 289.84,-46.09 296.84,-46.01"/>
<text text-anchor="middle" x="310.5" y="-56.8" font-family="Helvetica,sans-Serif" font-size="9.00">created</text>
</g>
<!-- future2 -->
<g id="node9" class="node">
<title>future2</title>
<path fill="#bdc3c7" stroke="black" stroke-dasharray="5,2" d="M436.5,-36C436.5,-36 375.5,-36 375.5,-36 369.5,-36 363.5,-30 363.5,-24 363.5,-24 363.5,-12 363.5,-12 363.5,-6 369.5,0 375.5,0 375.5,0 436.5,0 436.5,0 442.5,0 448.5,-6 448.5,-12 448.5,-12 448.5,-24 448.5,-24 448.5,-30 442.5,-36 436.5,-36"/>
<text text-anchor="middle" x="406" y="-15.2" font-family="Helvetica,sans-Serif" font-size="11.00" fill="white">future agent</text>
</g>
<!-- russell&#45;&gt;future2 -->
<g id="edge6" class="edge">
<title>russell&#45;&gt;future2</title>
<path fill="none" stroke="black" d="M318.03,-81.84C334.27,-70.24 355.9,-54.78 373.65,-42.11"/>
<polygon fill="black" stroke="black" points="375.91,-44.79 382.01,-36.13 371.84,-39.1 375.91,-44.79"/>
<text text-anchor="middle" x="371.5" y="-56.8" font-family="Helvetica,sans-Serif" font-size="9.00">invited</text>
</g>
<!-- guest1 -->
<g id="node6" class="node">
<title>guest1</title>
<path fill="#95a5a6" stroke="black" stroke-dasharray="5,2" d="M335,-200C335,-200 255,-200 255,-200 249,-200 243,-194 243,-188 243,-188 243,-176 243,-176 243,-170 249,-164 255,-164 255,-164 335,-164 335,-164 341,-164 347,-170 347,-176 347,-176 347,-188 347,-188 347,-194 341,-200 335,-200"/>
<text text-anchor="middle" x="295" y="-185.2" font-family="Helvetica,sans-Serif" font-size="11.00" fill="white">guest&#45;a7b3c8d1</text>
<text text-anchor="middle" x="295" y="-173.2" font-family="Helvetica,sans-Serif" font-size="11.00" fill="white">(anonymous)</text>
</g>
<!-- guest1&#45;&gt;russell -->
<g id="edge7" class="edge">
<title>guest1&#45;&gt;russell</title>
<path fill="none" stroke="#95a5a6" stroke-dasharray="5,2" d="M294.78,-163.64C294.65,-153.3 294.49,-139.94 294.34,-128.22"/>
<polygon fill="#95a5a6" stroke="#95a5a6" points="297.84,-128.01 294.21,-118.05 290.84,-128.09 297.84,-128.01"/>
<text text-anchor="middle" x="318" y="-138.8" font-family="Helvetica,sans-Serif" font-size="9.00">anon send</text>
</g>
<!-- guest2 -->
<g id="node7" class="node">
<title>guest2</title>
<path fill="#95a5a6" stroke="black" stroke-dasharray="5,2" d="M90,-200C90,-200 12,-200 12,-200 6,-200 0,-194 0,-188 0,-188 0,-176 0,-176 0,-170 6,-164 12,-164 12,-164 90,-164 90,-164 96,-164 102,-170 102,-176 102,-176 102,-188 102,-188 102,-194 96,-200 90,-200"/>
<text text-anchor="middle" x="51" y="-185.2" font-family="Helvetica,sans-Serif" font-size="11.00" fill="white">guest&#45;f2e9b4a0</text>
<text text-anchor="middle" x="51" y="-173.2" font-family="Helvetica,sans-Serif" font-size="11.00" fill="white">(anonymous)</text>
</g>
<!-- guest2&#45;&gt;blah -->
<g id="edge8" class="edge">
<title>guest2&#45;&gt;blah</title>
<path fill="none" stroke="#95a5a6" stroke-dasharray="5,2" d="M49.85,-163.72C49.68,-155.28 50.05,-145.01 52,-136 52.62,-133.15 53.47,-130.25 54.45,-127.39"/>
<polygon fill="#95a5a6" stroke="#95a5a6" points="57.74,-128.6 58.16,-118.01 51.23,-126.02 57.74,-128.6"/>
<text text-anchor="middle" x="76" y="-138.8" font-family="Helvetica,sans-Serif" font-size="9.00">anon send</text>
</g>
</g>
</svg>
